<?xml version="1.0" encoding="UTF-8" standalone="no"?>
<!-- Created with Inkscape (http://www.inkscape.org/) -->

<svg
   xmlns:dc="http://purl.org/dc/elements/1.1/"
   xmlns:cc="http://creativecommons.org/ns#"
   xmlns:rdf="http://www.w3.org/1999/02/22-rdf-syntax-ns#"
   xmlns:svg="http://www.w3.org/2000/svg"
   xmlns="http://www.w3.org/2000/svg"
   xmlns:sodipodi="http://sodipodi.sourceforge.net/DTD/sodipodi-0.dtd"
   xmlns:inkscape="http://www.inkscape.org/namespaces/inkscape"
   width="90mm"
   height="50mm"
   id="svg2985"
   version="1.1"
   inkscape:version="0.48.4 r9939"
   sodipodi:docname="holonomy-business-card.svg">
  <defs
     id="defs3" />
  <sodipodi:namedview
     id="base"
     pagecolor="#ffffff"
     bordercolor="#666666"
     borderopacity="1.0"
     inkscape:pageopacity="0.0"
     inkscape:pageshadow="2"
     inkscape:zoom="1.2"
     inkscape:cx="157.42563"
     inkscape:cy="90"
     inkscape:document-units="mm"
     inkscape:current-layer="layer1"
     showgrid="false"
     inkscape:window-width="819"
     inkscape:window-height="541"
     inkscape:window-x="426"
     inkscape:window-y="95"
     inkscape:window-maximized="0"
     units="mm" />
  <metadata
     id="metadata2989">
    <rdf:RDF>
      <cc:Work
         rdf:about="">
        <dc:format>image/svg+xml</dc:format>
        <dc:type
           rdf:resource="http://purl.org/dc/dcmitype/StillImage" />
        <dc:title />
      </cc:Work>
    </rdf:RDF>
  </metadata>
  <g
     inkscape:label="Layer 1"
     inkscape:groupmode="layer"
     id="layer1"
     style="display:inline">
    <path
       style="fill:#000000"
       d="m 153.60494,101.18684 c -20.05603,-3.236851 -35.24832,-17.739108 -39.53171,-37.736202 -0.9788,-4.569518 -0.9788,-13.419436 0,-17.988959 2.09578,-9.784151 6.06178,-17.174988 12.92749,-24.091023 7.02573,-7.077198 14.55621,-11.169844 24.45334,-13.2898201 4.56954,-0.9787961 13.41945,-0.9787961 17.98897,0 9.15451,1.9609051 17.02849,6.0567061 23.46417,12.2053081 9.66259,9.231585 14.6287,20.831499 14.6287,34.170018 0,7.85489 -1.56724,14.600605 -4.95166,21.312999 -4.23986,8.409028 -12.43855,16.60609 -20.82268,20.818534 -8.38783,4.214285 -19.39795,6.012695 -28.15662,4.599145 z m 8.45118,-3.268039 c 0.14666,-0.722817 0.56022,-1.602713 0.91903,-1.95532 0.60532,-0.594865 0.70697,-0.574517 1.40928,0.282109 0.41629,0.507771 0.7569,1.351642 0.7569,1.875279 0,0.882766 0.10668,0.934316 1.46648,0.70833 2.22473,-0.369737 2.39852,-0.468363 2.19519,-1.245897 -0.26313,-1.006208 0.50544,-2.847526 1.18857,-2.847526 0.55157,0 1.98238,1.53126 2.28826,2.448922 0.11454,0.343725 0.53167,0.340434 1.71303,-0.01344 1.54147,-0.461832 1.56127,-0.491716 1.53662,-2.320282 -0.0316,-2.351084 0.85409,-2.677369 2.49618,-0.919499 l 1.13234,1.212171 1.41141,-0.673053 c 1.02051,-0.486655 1.33748,-0.840963 1.14442,-1.27933 -0.63314,-1.437665 -0.61379,-3.035762 0.0398,-3.286556 0.72792,-0.279336 2.18872,0.363199 2.66705,1.173118 0.44477,0.753057 1.08903,0.655667 2.35278,-0.355649 1.06855,-0.855113 1.08312,-0.915997 0.49124,-2.051145 -0.73672,-1.41292 -0.79082,-2.522388 -0.12599,-2.583627 1.10745,-0.102034 2.09023,0.150841 2.70001,0.694681 0.52173,0.465321 0.79428,0.484915 1.40858,0.101274 1.3251,-0.82754 1.79592,-1.902241 1.15919,-2.645949 -1.47964,-1.728175 -1.009,-3.375946 0.83847,-2.935585 0.56688,0.135134 1.27313,0.437584 1.56944,0.672128 0.41728,0.330315 0.79351,0.12129 1.66872,-0.927071 1.09648,-1.313403 1.10795,-1.371132 0.38691,-1.946867 -0.40867,-0.326339 -0.94846,-0.994223 -1.1995,-1.484185 -0.25106,-0.489971 -0.63685,-0.779363 -0.85732,-0.643108 -0.24538,0.151662 -0.0996,0.572994 0.37571,1.086379 2.19405,2.369414 0.30502,4.331491 -2.09147,2.172363 -0.76145,-0.686033 -0.82825,-0.683124 -2.04801,0.08917 -1.06982,0.67737 -1.19846,0.914993 -0.84886,1.568212 0.58298,1.0893 0.0772,3.070385 -0.7837,3.070385 -0.75381,0 -1.7168,-0.950205 -2.1257,-2.097453 -0.18842,-0.528659 -0.49999,-0.664328 -1.13486,-0.494172 -0.48133,0.129012 -1.1957,0.236969 -1.58751,0.239899 -0.50821,0.0039 -0.68198,0.257476 -0.60641,0.885239 0.1448,1.202654 -0.7073,2.63968 -1.5652,2.63968 -0.83901,0 -1.64291,-1.561981 -1.36023,-2.642965 0.1602,-0.612635 -0.0511,-0.816646 -1.05285,-1.017027 -1.89419,-0.378852 -2.32869,-0.309621 -2.32869,0.371011 0,0.993523 -1.62742,2.109492 -2.44118,1.67398 -0.79062,-0.423126 -0.92734,-2.290299 -0.21953,-2.99811 0.36304,-0.36304 0.29735,-0.600997 -0.29329,-1.062475 -1.65956,-1.296628 -2.00418,-1.368502 -2.72783,-0.568874 -0.38303,0.423246 -1.19709,0.76954 -1.809,0.76954 -0.90913,0 -1.11259,-0.16914 -1.11259,-0.924916 0,-0.508713 0.36431,-1.388074 0.80958,-1.954153 l 0.8096,-1.02923 -0.8252,-1.158871 c -0.70625,-0.991858 -0.95135,-1.101386 -1.70056,-0.760027 -1.01162,0.460929 -3.00406,-0.121533 -3.00406,-0.878185 0,-0.645947 1.18565,-1.89803 1.79731,-1.89803 0.78312,0 1.00074,-0.648034 0.72005,-2.144198 -0.2119,-1.129475 -0.42964,-1.375379 -1.21788,-1.375379 -2.45573,0 -3.35654,-1.885388 -1.30651,-2.734541 0.64139,-0.265671 1.40166,-0.392678 1.68947,-0.28223 0.34827,0.133646 0.65985,-0.310699 0.93149,-1.328356 0.38252,-1.433155 0.34622,-1.559609 -0.57799,-2.013833 -1.2371,-0.60801 -1.84255,-1.556325 -1.52385,-2.38683 0.2747,-0.715889 1.88053,-0.851814 2.998,-0.253763 0.59109,0.316349 0.86322,0.16174 1.50814,-0.856858 0.77748,-1.227932 0.7779,-1.254328 0.0352,-2.198521 -0.41345,-0.525618 -0.75173,-1.371877 -0.75173,-1.880589 0,-0.742911 0.20666,-0.924916 1.05021,-0.924916 0.57764,0 1.44239,0.368411 1.92169,0.818694 l 0.87147,0.818705 1.21744,-0.900087 c 0.82638,-0.610978 1.13097,-1.093761 0.94823,-1.503064 -0.39171,-0.877387 -0.28645,-2.375824 0.20116,-2.863427 0.62347,-0.623477 2.27942,0.385157 2.57666,1.569422 0.19308,0.769292 0.42042,0.920962 1.10523,0.737343 0.4742,-0.127139 1.17012,-0.23357 1.54653,-0.236509 0.47257,-0.0039 0.68436,-0.315859 0.68436,-1.00871 0,-1.346799 0.66791,-2.516202 1.43713,-2.516202 0.85697,0 1.6639,1.152793 1.67896,2.39854 0.009,0.731617 0.26721,1.0981 0.89231,1.265619 1.45277,0.389323 2.24863,0.27899 2.24863,-0.311731 0,-0.774248 1.88275,-2.182541 2.56688,-1.920012 0.62971,0.241639 0.75419,2.350476 0.19125,3.240285 -0.26456,0.418192 -0.0326,0.792495 0.88589,1.429516 1.2419,0.861326 1.24589,0.861499 2.08345,0.08791 0.53321,-0.492463 1.24612,-0.728505 1.95532,-0.647379 0.92727,0.106064 1.0979,0.29069 1.00824,1.090943 -0.0593,0.529799 -0.44679,1.323958 -0.86092,1.764788 -0.74367,0.791582 -0.74305,0.817203 0.0487,2.06747 0.90063,1.422456 0.88664,1.416126 1.91563,0.865437 1.00481,-0.537767 2.72295,-0.07051 2.70733,0.736222 -0.0177,0.915137 -0.81988,1.849792 -1.87491,2.184644 -0.58973,0.18718 -0.82843,0.491649 -0.68286,0.871022 0.12312,0.320786 0.22382,1.008806 0.22382,1.528925 0,0.754474 0.20287,0.945678 1.00336,0.945678 1.34681,0 2.51622,0.667907 2.51622,1.437137 0,0.86843 -1.15829,1.664068 -2.44415,1.678938 -0.5915,0.0068 -1.07543,0.166419 -1.07543,0.354617 0,0.188199 -0.10996,0.892117 -0.24443,1.564258 -0.19146,0.957391 -0.11025,1.222075 0.37524,1.222075 0.3408,0 1.06674,0.482143 1.61315,1.071432 0.77778,0.838795 0.99347,0.926687 0.99347,0.404828 0,-0.366634 -0.34791,-0.852813 -0.77316,-1.080397 -0.42524,-0.227583 -0.97545,-0.79177 -1.22269,-1.253762 -0.6378,-1.191723 0.52086,-1.998321 2.41229,-1.67932 1.33742,0.225563 1.41223,0.175971 1.84075,-1.220277 0.47404,-1.544572 0.35308,-2.108466 -0.45229,-2.108466 -0.27246,0 -0.88771,-0.417649 -1.36727,-0.928109 -0.80522,-0.857115 -0.82326,-0.976776 -0.23578,-1.564258 0.3499,-0.349878 1.24505,-0.636145 1.98923,-0.636145 1.40074,0 1.50452,-0.12468 1.87149,-2.248618 0.19291,-1.116481 0.11383,-1.272543 -0.65052,-1.28397 -0.9232,-0.01373 -2.6299,-1.222332 -2.6299,-1.862252 0,-0.544928 1.79055,-1.644315 2.67807,-1.644315 0.8523,0 1.32328,-1.262237 0.98051,-2.627893 -0.15114,-0.602156 -0.51342,-0.891685 -1.11574,-0.891685 -0.49057,0 -1.30739,-0.351958 -1.81516,-0.782128 l -0.92322,-0.782129 0.92322,-0.782127 c 0.50777,-0.430179 1.35165,-0.782129 1.87528,-0.782129 0.88276,0 0.93431,-0.106716 0.70833,-1.466495 -0.36973,-2.224737 -0.46837,-2.39851 -1.24589,-2.195184 -1.00623,0.263125 -2.84755,-0.505443 -2.84755,-1.188567 0,-0.551571 1.53128,-1.982382 2.44894,-2.288272 0.34373,-0.114571 0.34042,-0.531661 -0.0143,-1.713026 -0.46183,-1.541462 -0.49172,-1.561251 -2.32029,-1.536617 -2.35108,0.03172 -2.67735,-0.854095 -0.91949,-2.496186 l 1.21217,-1.132327 -0.67307,-1.41142 c -0.48665,-1.020514 -0.84095,-1.337464 -1.27932,-1.144414 -1.43766,0.633134 -3.03576,0.613796 -3.28655,-0.03978 -0.27933,-0.727926 0.36319,-2.188719 1.17311,-2.667057 0.75307,-0.444761 0.65567,-1.08902 -0.35565,-2.352764 -0.8551,-1.068545 -0.91598,-1.083127 -2.05115,-0.491238 -1.41292,0.736723 -2.52238,0.790823 -2.58362,0.125981 -0.10223,-1.109444 0.1513,-2.090728 0.69866,-2.704381 0.51498,-0.577353 0.5082,-0.762312 -0.0598,-1.629186 -0.82773,-1.263266 -1.72072,-1.589741 -2.50793,-0.916905 -1.71143,1.462744 -3.35425,0.9807 -2.9165,-0.85577 0.13514,-0.566875 0.43758,-1.273118 0.67212,-1.569431 0.33031,-0.417285 0.12126,-0.79351 -0.92707,-1.668728 -1.31339,-1.096474 -1.37112,-1.107946 -1.94687,-0.386914 -0.75963,0.951335 -2.25742,1.722035 -2.75227,1.416206 -0.49153,-0.303791 -0.4956,-2.377915 -0.008,-3.291917 0.31506,-0.588708 0.12541,-0.816796 -1.16134,-1.397062 l -1.53787,-0.693488 -1.14642,1.227241 c -0.63051,0.674981 -1.33355,1.227238 -1.56232,1.227238 -0.72507,0 -1.26783,-1.528015 -1.01722,-2.863791 0.22878,-1.219503 0.16332,-1.312636 -1.22104,-1.737508 -1.55155,-0.476188 -2.11583,-0.356168 -2.11583,0.450037 0,0.272442 -0.41765,0.887711 -0.92812,1.367263 -0.85711,0.805219 -0.97676,0.823253 -1.56426,0.235767 -0.34988,-0.349883 -0.63614,-1.245025 -0.63614,-1.989211 0,-1.400755 -0.1247,-1.504527 -2.24864,-1.871501 -1.11646,-0.1929034 -1.27252,-0.11384 -1.28396,0.650523 -0.0143,0.944361 -1.22766,2.629908 -1.89345,2.629908 -0.22683,0 -0.6222,-0.392028 -0.87863,-0.871172 -0.45177,-0.844125 -0.47481,-0.847159 -0.74211,-0.09776 -0.20776,0.582487 -0.0719,0.836187 0.55026,1.027726 1.42391,0.438354 2.58589,0.354705 2.58589,-0.186151 0,-0.285134 0.43479,-0.92689 0.96619,-1.426123 0.80153,-0.752998 1.06813,-0.823103 1.56425,-0.411347 0.66752,0.553989 0.78535,2.057357 0.24099,3.07452 -0.28035,0.523854 -0.079,0.849536 0.93757,1.515867 1.27995,0.839018 1.30248,0.840031 1.98195,0.08921 0.37801,-0.417695 1.18797,-0.759447 1.79987,-0.759447 0.94654,0 1.11259,0.156732 1.11259,1.050222 0,0.577624 -0.34342,1.41577 -0.76315,1.862555 -0.75702,0.805815 -0.75682,0.822323 0.0257,2.058204 0.6808,1.075228 0.90734,1.191873 1.65413,0.851619 1.06322,-0.484439 2.99398,0.149453 2.99398,0.982961 0,0.523758 -1.51071,1.972026 -2.35809,2.260636 -0.19995,0.06809 -0.25608,0.783733 -0.12469,1.590302 0.1999,1.227712 0.39382,1.466492 1.19098,1.466492 2.44891,0 3.34518,1.886939 1.29888,2.73454 -0.64139,0.265674 -1.41389,0.387982 -1.71667,0.271797 -0.3746,-0.143751 -0.62675,0.17001 -0.78915,0.982009 -0.34816,1.740772 -0.29583,2.26868 0.22498,2.26868 0.255,0 0.8641,0.376246 1.35359,0.836089 1.62351,1.525212 -0.40685,3.074762 -2.53585,1.935349 -0.52385,-0.280361 -0.84953,-0.07891 -1.51586,0.93758 -0.83902,1.279931 -0.84005,1.302457 -0.0892,1.981944 0.41768,0.378009 0.75943,1.18795 0.75943,1.799869 0,0.946545 -0.15672,1.11258 -1.05022,1.11258 -0.57763,0 -1.41577,-0.343415 -1.86255,-0.763145 -0.80581,-0.757026 -0.82234,-0.756816 -2.05822,0.02568 -1.07522,0.68079 -1.19187,0.907349 -0.8516,1.654122 0.48443,1.063228 -0.14947,2.993983 -0.98298,2.993983 -0.52374,0 -1.97202,-1.51071 -2.26062,-2.358106 -0.0681,-0.199937 -0.78374,-0.256075 -1.59031,-0.124737 -1.26507,0.205991 -1.46648,0.380945 -1.46648,1.2738 0,0.569257 -0.27396,1.426123 -0.60877,1.904152 -0.55099,0.786643 -0.55099,0.869147 0,0.869147 0.33481,0 0.60877,-0.25416 0.60877,-0.56479 0,-1.00718 1.69659,-2.638462 2.44529,-2.351161 0.77277,0.296543 0.97169,2.691494 0.26008,3.1313 -0.26746,0.165297 -0.0331,0.66854 0.63686,1.367893 0.9852,1.028332 1.12249,1.065426 1.94597,0.52585 1.08893,-0.713499 2.92961,-0.35128 2.9117,0.572988 -0.0177,0.912545 -0.85266,1.894368 -1.75709,2.066084 -0.98965,0.187889 -1.39028,3.073119 -0.42673,3.073119 1.02615,0 2.66539,1.687925 2.37476,2.445297 -0.29655,0.772773 -2.69151,0.971699 -3.13131,0.260083 -0.16529,-0.267458 -0.66855,-0.03315 -1.36789,0.636855 -1.02832,0.985204 -1.06542,1.122486 -0.52584,1.94598 0.71349,1.088924 0.35128,2.929601 -0.57299,2.911695 -0.91254,-0.01771 -1.89437,-0.852671 -2.06609,-1.757104 -0.18787,-0.989635 -3.07312,-1.390273 -3.07312,-0.426726 0,1.026156 -1.68791,2.665393 -2.44529,2.374763 -0.76007,-0.291669 -0.96118,-2.481549 -0.28957,-3.153162 0.26414,-0.26415 0.039,-0.731384 -0.68437,-1.42031 -0.933,-0.888583 -1.17209,-0.957219 -1.77755,-0.51025 -0.64619,0.477029 -0.6089,0.548023 0.48882,0.930693 0.65362,0.227848 1.18838,0.629542 1.18838,0.892651 0,0.654627 -1.18088,1.90869 -1.79732,1.90869 -0.78309,0 -1.00073,0.648034 -0.72004,2.144197 0.21189,1.129475 0.42965,1.37538 1.21788,1.37538 2.45573,0 3.35654,1.885389 1.30651,2.734541 -0.64139,0.265672 -1.41506,0.387532 -1.71928,0.270795 -0.38686,-0.148453 -0.67024,0.24918 -0.94279,1.322932 -0.36423,1.435007 -0.32458,1.567166 0.6078,2.025267 1.24753,0.612967 1.8548,1.559286 1.53516,2.392257 -0.27471,0.715888 -1.88054,0.851811 -2.99801,0.25376 -0.59109,-0.316348 -0.86321,-0.16174 -1.50815,0.856859 -0.77745,1.227931 -0.77788,1.254328 -0.0352,2.198521 0.41346,0.525617 0.75174,1.371878 0.75174,1.88059 0,0.742917 -0.20667,0.924916 -1.05023,0.924916 -0.57763,0 -1.44238,-0.368412 -1.9217,-0.818695 l -0.87147,-0.818703 -1.21742,0.900085 c -0.8264,0.610985 -1.13097,1.093761 -0.94823,1.503063 0.39171,0.877388 0.28644,2.375826 -0.20116,2.863429 -0.62347,0.623476 -2.27943,-0.385157 -2.57666,-1.569423 -0.19308,-0.769292 -0.42042,-0.920961 -1.10524,-0.737344 -0.4742,0.127139 -1.17013,0.233572 -1.54653,0.236511 -0.47256,0.0039 -0.68435,0.315858 -0.68435,1.008707 0,1.346807 -0.66791,2.516211 -1.43715,2.516211 -0.85696,0 -1.66389,-1.152801 -1.67894,-2.398546 -0.009,-0.731616 -0.26722,-1.098093 -0.89234,-1.265619 -1.45275,-0.389325 -2.24861,-0.27899 -2.24861,0.311731 0,0.774247 -1.88276,2.182541 -2.56687,1.920012 -0.62971,-0.241641 -0.75418,-2.350477 -0.19125,-3.240286 0.26456,-0.418192 0.0326,-0.792494 -0.88589,-1.429517 -1.24191,-0.861324 -1.2459,-0.86149 -2.08346,-0.08791 -0.5332,0.492463 -1.24612,0.728506 -1.95531,0.64738 -0.97076,-0.111038 -1.1007,-0.272928 -0.99739,-1.242688 0.083,-0.778226 -0.0352,-1.063741 -0.39106,-0.945249 -0.83729,0.278787 -0.76936,1.20875 0.1738,2.379374 0.8608,1.068404 0.92214,1.083049 2.05713,0.491242 1.41293,-0.736724 2.52237,-0.790828 2.58363,-0.125981 0.10223,1.109446 -0.1513,2.090726 -0.69865,2.704386 -0.51499,0.577348 -0.5082,0.762307 0.0598,1.629179 0.82773,1.263267 1.7207,1.589749 2.50794,0.916907 1.71141,-1.462736 3.35421,-0.9807 2.91648,0.855775 -0.13514,0.56687 -0.43759,1.273115 -0.67214,1.569425 -0.33031,0.417287 -0.12125,0.79351 0.92709,1.668728 1.31339,1.096481 1.37111,1.107955 1.94687,0.386921 0.75963,-0.951342 2.25742,-1.722036 2.75227,-1.41621 0.49154,0.303789 0.4956,2.377919 0.005,3.291918 -0.31506,0.588702 -0.12541,0.816798 1.16134,1.397062 l 1.53788,0.693483 1.14642,-1.227237 c 0.63052,-0.674989 1.33358,-1.227244 1.56236,-1.227244 0.72506,0 1.26781,1.528014 1.01723,2.86379 -0.22879,1.2195 -0.16333,1.312634 1.22102,1.73751 1.55155,0.476183 2.11584,0.356162 2.11584,-0.450035 0,-0.272444 0.41766,-0.887717 0.92811,-1.367267 0.85712,-0.805218 0.97678,-0.823254 1.56426,-0.235765 0.34988,0.34988 0.63615,1.245024 0.63615,1.989205 0,1.400754 0.12469,1.504526 2.24862,1.871506 1.11648,0.192899 1.27254,0.113841 1.28397,-0.650529 0.0143,-0.923196 1.22233,-2.629901 1.86225,-2.629901 0.54977,0 1.64431,1.793933 1.64431,2.695013 0,0.819705 0.7746,1.178577 2.33248,1.080667 0.76151,-0.04779 1.01971,-0.336348 1.23041,-1.374784 z M 125.61494,77.368229 c 0.29535,-0.355874 0.31932,-0.637449 0.0675,-0.793081 -0.21475,-0.132717 -0.58144,0.1156 -0.81487,0.551782 -0.4828,0.902095 0.055,1.075688 0.74737,0.241299 z m 73.05113,-1.728784 c -0.69236,-0.07134 -1.49289,-0.324002 -1.77901,-0.561454 -0.38762,-0.321681 -0.60938,-0.288618 -0.87001,0.129714 -0.27549,0.442215 -0.0214,0.608355 1.19574,0.782308 0.85005,0.121476 1.66877,0.344093 1.81938,0.494709 0.15061,0.150621 0.41309,0.05122 0.58326,-0.220856 0.22104,-0.353397 -0.0502,-0.531765 -0.94936,-0.624426 z m -76.73655,0.07533 c 0.51961,-0.199393 0.54587,-0.316846 0.1297,-0.580611 -0.83003,-0.526153 -1.49532,-0.39627 -1.24964,0.243968 0.25797,0.672239 0.25087,0.670107 1.11988,0.336643 z m 2.65702,-0.963765 c -0.30931,-0.309311 -0.63616,-0.312679 -1.15363,-0.01187 -0.63298,0.367929 -0.57975,0.42116 0.43159,0.431586 0.8413,0.0087 1.03679,-0.104956 0.72204,-0.419691 z m -2.19895,-2.874526 c 0.67681,-0.16987 0.90932,-0.432934 0.74989,-0.848422 -0.12712,-0.331211 -0.23108,-1.027753 -0.23108,-1.547878 0,-0.754474 -0.20287,-0.945679 -1.00338,-0.945679 -1.34681,0 -2.5162,-0.667906 -2.5162,-1.437138 0,-0.868424 1.15826,-1.664065 2.44413,-1.678937 0.5915,-0.0068 1.07545,-0.166419 1.07545,-0.354617 0,-0.188198 0.10527,-0.868695 0.234,-1.512209 0.19921,-0.996061 0.0976,-1.204674 -0.68437,-1.403087 -1.09468,-0.277801 -1.97536,-1.555669 -1.65231,-2.3975 0.27666,-0.720966 2.51189,-0.818536 3.19114,-0.139295 0.25451,0.254515 0.51026,0.3865 0.56835,0.293296 0.058,-0.0932 0.49204,-0.722192 0.96435,-1.397755 0.83252,-1.190804 0.83672,-1.248223 0.13757,-1.880957 -0.87114,-0.788351 -1.25705,-2.474619 -0.65321,-2.854052 0.66908,-0.420414 1.91482,-0.107651 2.78778,0.699926 0.76844,0.710885 0.81704,0.709219 2.04801,-0.07013 1.06982,-0.677362 1.19845,-0.914986 0.84885,-1.568204 -0.58297,-1.0893 -0.0773,-3.070387 0.7837,-3.070387 0.75381,0 1.7168,0.950199 2.12571,2.097454 0.18841,0.52866 0.49998,0.664329 1.13487,0.494173 0.48132,-0.129013 1.19569,-0.236968 1.58749,-0.239907 0.50821,-0.0039 0.68198,-0.257468 0.60641,-0.88523 -0.14478,-1.202664 0.70731,-2.639682 1.56521,-2.639682 0.83902,0 1.6429,1.561976 1.36022,2.642959 -0.16021,0.612643 0.0511,0.816653 1.05285,1.017026 1.89419,0.378838 2.32871,0.309606 2.32871,-0.371025 0,-0.993523 1.62742,-2.109493 2.44117,-1.673982 0.79063,0.423128 0.92733,2.290301 0.21953,2.998111 -0.36305,0.363041 -0.29735,0.600998 0.29329,1.062476 1.65957,1.296633 2.00417,1.368502 2.72782,0.568874 0.38304,-0.423247 1.1971,-0.76954 1.80902,-0.76954 0.90912,0 1.11258,0.169138 1.11258,0.924916 0,0.508712 -0.36339,1.386906 -0.80755,1.951553 -0.44415,0.564641 -0.68657,1.222325 -0.53875,1.461525 0.16182,0.261821 0.49837,-0.0391 0.84565,-0.756147 0.32934,-0.679997 0.93803,-1.242529 1.41864,-1.311023 0.66372,-0.09459 0.86747,-0.430199 0.96318,-1.586464 0.0909,-1.098612 -0.0262,-1.466489 -0.46703,-1.466489 -1.02617,0 -2.66539,-1.687924 -2.37476,-2.445297 0.29653,-0.772779 2.69149,-0.971698 3.13129,-0.260089 0.1653,0.267463 0.66855,0.03315 1.36789,-0.636848 1.02833,-0.985205 1.06543,-1.122493 0.52584,-1.94598 -0.71348,-1.088931 -0.35127,-2.929602 0.573,-2.911703 0.91012,0.01763 1.89379,0.851564 2.06733,1.752613 0.0813,0.422343 0.48537,0.832881 0.89786,0.91232 0.70196,0.13519 0.70798,0.102425 0.094,-0.51168 -0.74203,-0.742029 -1.23583,-2.328124 -0.896,-2.877976 0.12426,-0.201125 -0.32107,-0.475091 -0.98973,-0.608824 -1.7637,-0.352742 -2.29115,-0.30199 -2.29115,0.220486 0,0.254989 -0.37624,0.864114 -0.83609,1.353602 -1.5252,1.623506 -3.07476,-0.406847 -1.93535,-2.535849 0.28035,-0.523854 0.079,-0.849537 -0.93757,-1.515869 -1.27993,-0.839021 -1.30248,-0.84003 -1.98195,-0.08921 -0.37801,0.417695 -1.18795,0.759445 -1.79987,0.759445 -0.94655,0 -1.11258,-0.156723 -1.11258,-1.050218 0,-0.57762 0.34341,-1.415774 0.76316,-1.862554 0.75708,-0.805895 0.75681,-0.822326 -0.0352,-2.073218 -0.65203,-1.029794 -0.92938,-1.190761 -1.51328,-0.878269 -1.07406,0.574825 -3.12534,0.04693 -3.12534,-0.804329 0,-0.632846 1.42218,-2.078838 2.3581,-2.397604 0.19995,-0.06811 0.25608,-0.783734 0.1247,-1.590304 -0.19992,-1.227712 -0.39383,-1.466489 -1.19099,-1.466489 -2.4489,0 -3.34516,-1.886939 -1.29888,-2.734541 0.64138,-0.265675 1.41389,-0.387982 1.71666,-0.271797 0.37461,0.143752 0.62676,-0.170012 0.78917,-0.982009 0.35524,-1.776234 0.29452,-2.268681 -0.27978,-2.268681 -0.28514,0 -0.9269,-0.43479 -1.42613,-0.966196 -0.753,-0.80153 -0.8231,-1.068125 -0.41135,-1.564258 0.55398,-0.667518 2.05736,-0.785353 3.07453,-0.240985 0.52386,0.280358 0.84953,0.07892 1.51586,-0.937575 0.83902,-1.279939 0.84004,-1.302464 0.0892,-1.981944 -0.41769,-0.378009 -0.75943,-1.187951 -0.75943,-1.799873 0,-0.946544 0.15672,-1.112582 1.05022,-1.112582 0.57763,0 1.41577,0.343415 1.86256,0.763146 0.80581,0.757024 0.82232,0.756819 2.0582,-0.02568 1.07523,-0.680787 1.19186,-0.907349 0.85161,-1.654125 -0.54071,-1.186742 0.18904,-3.098586 1.11471,-2.92032 0.37288,0.07181 1.0323,0.693767 1.46533,1.382116 0.43306,0.688352 1.02011,1.258327 1.30457,1.266611 0.35075,0.0101 0.25637,-0.316571 -0.29328,-1.015335 -0.44578,-0.566719 -0.81051,-1.46208 -0.81051,-1.989695 0,-0.9110133 -0.0837,-0.945453 -1.66203,-0.68428 -2.0937,0.346443 -2.21511,0.42395 -1.99329,1.272218 0.25792,0.986283 -0.51956,2.823221 -1.19493,2.823221 -0.55157,0 -1.98239,-1.531264 -2.28828,-2.448922 -0.11454,-0.343725 -0.53165,-0.340435 -1.71302,0.01344 -1.54145,0.461834 -1.56125,0.491719 -1.53661,2.32028 0.0317,2.351086 -0.85409,2.677368 -2.49619,0.919502 l -1.13232,-1.212169 -1.41142,0.673055 c -1.02052,0.486651 -1.33748,0.840966 -1.14443,1.279328 0.63313,1.437667 0.61381,3.03576 -0.0398,3.286558 -0.72791,0.279331 -2.1887,-0.363206 -2.66704,-1.17312 -0.44477,-0.753057 -1.08903,-0.65567 -2.35277,0.355649 -1.06854,0.855112 -1.08313,0.915998 -0.49124,2.051144 0.73672,1.412919 0.79083,2.522385 0.12599,2.583632 -1.10944,0.102197 -2.09073,-0.151303 -2.70438,-0.69866 -0.57735,-0.51498 -0.7623,-0.508189 -1.62918,0.05981 -1.26326,0.827722 -1.58974,1.720702 -0.91691,2.507929 1.46274,1.71142 0.9807,3.354233 -0.85577,2.916488 -0.56687,-0.135119 -1.27312,-0.437578 -1.56943,-0.672128 -0.41728,-0.330309 -0.79351,-0.121291 -1.66873,0.927077 -1.09647,1.3134 -1.10794,1.371124 -0.3869,1.946868 0.95131,0.75964 1.72203,2.257429 1.4162,2.752272 -0.3038,0.491536 -2.37792,0.495598 -3.29192,0.0068 -0.58871,-0.315066 -0.8168,-0.125466 -1.39706,1.161336 l -0.69349,1.537883 1.22725,1.14641 c 0.67497,0.630527 1.22723,1.333593 1.22723,1.562358 0,0.725063 -1.52802,1.267818 -2.86379,1.017229 -1.21951,-0.228781 -1.31263,-0.163331 -1.73751,1.22103 -0.4762,1.551555 -0.35617,2.115834 0.45005,2.115834 0.27243,0 0.8877,0.417649 1.36725,0.92811 0.80522,0.857123 0.82326,0.976775 0.23576,1.564255 -0.34988,0.349887 -1.24502,0.636148 -1.98921,0.636148 -1.40075,0 -1.50452,0.12468 -1.87149,2.248624 -0.19511,1.129252 -0.11927,1.27096 0.68012,1.27096 0.49484,0 1.32407,0.451708 1.84272,1.003798 l 0.94303,1.003805 -0.97261,0.747286 c -0.53494,0.411013 -1.3495,0.751205 -1.81012,0.755988 -0.57088,0.006 -0.91828,0.330534 -1.09122,1.019618 -0.37646,1.499906 0.0778,2.50866 1.12962,2.50866 0.4994,0 1.32343,0.351959 1.83119,0.782129 l 0.92323,0.782129 -0.92323,0.782126 c -0.50776,0.43017 -1.35912,0.782129 -1.89192,0.782129 -0.92209,0 -0.95548,0.07999 -0.69369,1.662024 0.34644,2.093686 0.42394,2.215117 1.27221,1.99329 0.9863,-0.25792 2.82323,0.519569 2.82323,1.194925 0,0.55157 -1.53126,1.982389 -2.44893,2.288274 -0.34372,0.11457 -0.34043,0.531666 0.0129,1.713025 0.46183,1.541468 0.49171,1.561258 2.32027,1.536624 2.34809,-0.03164 2.67743,0.854034 0.926,2.490121 -0.80368,0.750744 -1.12217,1.343907 -0.9552,1.779018 0.2026,0.527953 0.35864,0.429416 0.81624,-0.515417 0.32046,-0.661693 0.99107,-1.274901 1.54674,-1.414366 z m 18.59935,-1.354581 c 1.12994,-1.009597 1.27713,-1.373858 1.27713,-3.16059 0,-1.786732 -0.14719,-2.150991 -1.27713,-3.160589 -1.87016,-1.670997 -4.0112,-1.601435 -5.80114,0.1885 -1.09001,1.090016 -1.32962,1.625599 -1.32962,2.972089 0,1.346489 0.23961,1.882074 1.32962,2.972092 1.78994,1.789933 3.93098,1.859503 5.80114,0.188498 z m 44.72437,-0.188498 c 1.09001,-1.090018 1.32962,-1.625603 1.32962,-2.972092 0,-1.34649 -0.23961,-1.882073 -1.32962,-2.972089 -1.78995,-1.789935 -3.93097,-1.859497 -5.80114,-0.1885 -1.12994,1.009598 -1.27714,1.373857 -1.27714,3.160589 0,1.786732 0.1472,2.150993 1.27714,3.16059 1.87017,1.671005 4.01119,1.601435 5.80114,-0.188498 z M 152.44521,59.44588 c -0.73923,-0.413694 -1.19851,-0.166751 -0.82224,0.442081 0.136,0.220003 0.52481,0.293477 0.8641,0.163285 0.55097,-0.211431 0.5465,-0.276105 -0.0419,-0.605366 z m 10.97543,-2.017636 c 1.09003,-1.090009 1.32963,-1.625592 1.32963,-2.972083 0,-1.34649 -0.2396,-1.882074 -1.32963,-2.97209 -1.09001,-1.090017 -1.6256,-1.329616 -2.97208,-1.329616 -1.3465,0 -1.88209,0.239599 -2.9721,1.329616 -1.09001,1.090016 -1.32962,1.6256 -1.32962,2.97209 0,1.346491 0.23961,1.882074 1.32962,2.972083 1.09001,1.090017 1.6256,1.329622 2.9721,1.329622 1.34648,0 1.88207,-0.239605 2.97208,-1.329622 z m 0,-25.810234 c 1.09003,-1.090016 1.32963,-1.625601 1.32963,-2.97209 0,-2.351999 -1.94971,-4.301705 -4.30171,-4.301705 -1.3465,0 -1.88209,0.239603 -2.9721,1.329618 -1.09001,1.090015 -1.32962,1.6256 -1.32962,2.972087 0,1.346489 0.23961,1.882074 1.32962,2.97209 1.09001,1.09001 1.6256,1.329616 2.9721,1.329616 1.34648,0 1.88207,-0.239606 2.97208,-1.329616 z m -4.14529,-19.309772 c 0,-0.597397 0.28596,-1.494429 0.63544,-1.993404 0.59691,-0.8521837 0.59192,-0.8988377 -0.0822,-0.7690141 -0.44652,0.085999 -0.81551,0.6165801 -0.97662,1.4043951 -0.14242,0.696405 -0.47894,1.531243 -0.7478,1.855196 -0.40929,0.493168 -0.35378,0.589005 0.34119,0.589005 0.64674,0 0.83,-0.239821 0.83,-1.086178 z m 2.96755,-2.3336536 c -0.42058,-0.420585 -0.64386,0.1684516 -0.34862,0.9197076 0.27695,0.704725 0.29788,0.705944 0.43484,0.02537 0.0791,-0.393236 0.0405,-0.818517 -0.0863,-0.9450727 z"
       id="path3011"
       inkscape:connector-curvature="0" />
    <text
       xml:space="preserve"
       style="font-size:24px;font-style:normal;font-weight:normal;text-align:center;line-height:125%;letter-spacing:0px;word-spacing:0px;text-anchor:middle;fill:#000000;fill-opacity:1;stroke:none;font-family:Sans"
       x="160.29752"
       y="161.49869"
       id="text3021"
       sodipodi:linespacing="125%"><tspan
         sodipodi:role="line"
         x="162.20767"
         y="161.49869"
         id="tspan3029"
         style="font-size:14px;-inkscape-font-specification:FreeSans;font-family:FreeSans;font-weight:normal;font-style:normal;font-stretch:normal;font-variant:normal">technology for self-organized collective ownership </tspan></text>
    <text
       xml:space="preserve"
       style="font-size:40px;font-style:normal;font-weight:normal;line-height:125%;letter-spacing:0px;word-spacing:0px;fill:#000000;fill-opacity:1;stroke:none;font-family:Sans"
       x="41.169937"
       y="133.83203"
       id="text3787"
       sodipodi:linespacing="125%"><tspan
         sodipodi:role="line"
         id="tspan3789"
         x="41.169937"
         y="133.83203">holonomy.is</tspan></text>
  </g>
</svg>
