<?xml version="1.0" encoding="UTF-8" standalone="no"?>
<!-- Created with Inkscape (http://www.inkscape.org/) -->

<svg
   xmlns:dc="http://purl.org/dc/elements/1.1/"
   xmlns:cc="http://creativecommons.org/ns#"
   xmlns:rdf="http://www.w3.org/1999/02/22-rdf-syntax-ns#"
   xmlns:svg="http://www.w3.org/2000/svg"
   xmlns="http://www.w3.org/2000/svg"
   xmlns:sodipodi="http://sodipodi.sourceforge.net/DTD/sodipodi-0.dtd"
   xmlns:inkscape="http://www.inkscape.org/namespaces/inkscape"
   width="64px"
   height="64px"
   id="svg3795"
   version="1.1"
   inkscape:version="0.48.4 r9939"
   sodipodi:docname="New document 2">
  <defs
     id="defs3797" />
  <sodipodi:namedview
     id="base"
     pagecolor="#ffffff"
     bordercolor="#666666"
     borderopacity="1.0"
     inkscape:pageopacity="0.0"
     inkscape:pageshadow="2"
     inkscape:zoom="5.5"
     inkscape:cx="32"
     inkscape:cy="32"
     inkscape:current-layer="layer1"
     showgrid="true"
     inkscape:document-units="px"
     inkscape:grid-bbox="true"
     inkscape:window-width="1366"
     inkscape:window-height="697"
     inkscape:window-x="0"
     inkscape:window-y="49"
     inkscape:window-maximized="1" />
  <metadata
     id="metadata3800">
    <rdf:RDF>
      <cc:Work
         rdf:about="">
        <dc:format>image/svg+xml</dc:format>
        <dc:type
           rdf:resource="http://purl.org/dc/dcmitype/StillImage" />
        <dc:title></dc:title>
      </cc:Work>
    </rdf:RDF>
  </metadata>
  <g
     id="layer1"
     inkscape:label="Layer 1"
     inkscape:groupmode="layer">
    <path
       style="fill:#000000;display:inline"
       d="M 27.475987,63.499965 C 13.96785,61.31988 3.7355397,51.552321 0.85059138,38.083882 c -0.6592414,-3.077662 -0.6592414,-9.038259 0,-12.115923 C 2.2621411,19.378138 4.9333216,14.400261 9.557514,9.7421741 14.289482,4.9755393 19.361411,2.219062 26.027326,0.79121539 c 3.077675,-0.6592372 9.038267,-0.6592372 12.11593,0 C 44.309,2.1119252 49.612282,4.8705275 53.946842,9.0117332 c 6.507946,6.2176568 9.852721,14.0304308 9.852721,23.0141898 0,5.290424 -1.055568,9.833798 -3.335041,14.354728 -2.855631,5.663648 -8.377613,11.184533 -14.02449,14.021697 -5.649373,2.838406 -13.064908,4.04967 -18.964045,3.097617 z m 5.692038,-2.20109 c 0.09878,-0.486833 0.37732,-1.079459 0.618984,-1.316947 0.407696,-0.400654 0.476158,-0.386949 0.949179,0.190005 0.280379,0.341994 0.509786,0.910359 0.509786,1.263038 0,0.59456 0.07184,0.629281 0.987705,0.477074 1.498399,-0.249025 1.61545,-0.315451 1.478502,-0.839135 -0.177222,-0.677702 0.340426,-1.917866 0.800526,-1.917866 0.371495,0 1.335174,1.031334 1.54119,1.649397 0.07714,0.231505 0.35809,0.229289 1.15376,-0.0091 1.038211,-0.311052 1.051545,-0.33118 1.034944,-1.562757 -0.02128,-1.583501 0.575247,-1.803261 1.681228,-0.6193 l 0.762652,0.816421 0.950613,-0.453313 c 0.687333,-0.327774 0.90082,-0.566407 0.770791,-0.861655 -0.426434,-0.968297 -0.413401,-2.044645 0.02681,-2.213561 0.490269,-0.188139 1.474146,0.244622 1.796311,0.790119 0.299563,0.507199 0.733484,0.441604 1.584647,-0.239537 0.719687,-0.575935 0.729502,-0.616942 0.330858,-1.381488 -0.496195,-0.951629 -0.532634,-1.698878 -0.08486,-1.740125 0.745892,-0.06873 1.407814,0.101598 1.818512,0.467882 0.351396,0.313403 0.534963,0.326599 0.948707,0.06821 0.892482,-0.557363 1.209588,-1.281198 0.780737,-1.782099 -0.996567,-1.16396 -0.679581,-2.273765 0.564726,-1.977172 0.381805,0.09102 0.857479,0.29472 1.05705,0.452689 0.281046,0.222475 0.534445,0.0817 1.123916,-0.6244 0.738501,-0.884602 0.746226,-0.923485 0.260593,-1.311254 -0.275248,-0.219796 -0.638808,-0.669628 -0.80789,-0.999628 -0.169092,-0.330004 -0.42893,-0.524917 -0.577419,-0.433145 -0.16527,0.10213 -0.06709,0.38592 0.253047,0.731696 1.477736,1.595848 0.205435,2.917346 -1.408649,1.46313 -0.512849,-0.462056 -0.55784,-0.460097 -1.379374,0.06006 -0.720544,0.456222 -0.807186,0.616265 -0.571725,1.056221 0.392649,0.733664 0.052,2.067965 -0.527837,2.067965 -0.507705,0 -1.156299,-0.639982 -1.431701,-1.412675 -0.1269,-0.356063 -0.336753,-0.447439 -0.764351,-0.332836 -0.324185,0.0869 -0.805326,0.159604 -1.06922,0.161577 -0.342289,0.0025 -0.459326,0.173414 -0.408429,0.596226 0.09754,0.810013 -0.47638,1.777877 -1.054192,1.777877 -0.565092,0 -1.106534,-1.052025 -0.916144,-1.780089 0.107893,-0.412621 -0.0344,-0.550028 -0.709114,-0.684989 -1.275775,-0.255165 -1.56842,-0.208535 -1.56842,0.249883 0,0.669159 -1.096099,1.420787 -1.644182,1.127458 -0.532499,-0.284981 -0.624584,-1.54256 -0.14786,-2.019283 0.244516,-0.244516 0.200272,-0.404786 -0.197536,-0.715598 -1.117745,-0.873307 -1.349855,-0.921715 -1.837246,-0.383151 -0.257979,0.285067 -0.806267,0.518301 -1.218399,0.518301 -0.612317,0 -0.749351,-0.113915 -0.749351,-0.622949 0,-0.342628 0.245369,-0.934895 0.545267,-1.31616 l 0.545277,-0.693213 -0.555789,-0.780522 C 37.938981,45.592121 37.773902,45.518351 37.269294,45.748263 36.587948,46.058709 35.246,45.666406 35.246,45.156788 c 0,-0.435058 0.79856,-1.278361 1.210522,-1.278361 0.527449,0 0.67402,-0.436464 0.484971,-1.444159 -0.142719,-0.760726 -0.289372,-0.926346 -0.820266,-0.926346 -1.653984,0 -2.260698,-1.269846 -0.879962,-1.841768 0.431988,-0.178934 0.944046,-0.264477 1.137891,-0.190087 0.234567,0.09001 0.444424,-0.209263 0.627376,-0.894674 0.257632,-0.965196 0.233184,-1.050366 -0.38929,-1.356297 -0.833211,-0.409506 -1.240996,-1.048215 -1.026343,-1.607577 0.185015,-0.482164 1.266575,-0.573713 2.019211,-0.170913 0.398111,0.213067 0.581397,0.108932 1.015763,-0.577113 0.523648,-0.827035 0.523932,-0.844815 0.0237,-1.480746 -0.278468,-0.354015 -0.506305,-0.923987 -0.506305,-1.266615 0,-0.500363 0.139187,-0.622948 0.707337,-0.622948 0.389051,0 0.971479,0.248132 1.294296,0.551406 l 0.586952,0.551413 0.81997,-0.606226 c 0.556585,-0.411506 0.761731,-0.736671 0.638653,-1.012343 -0.263825,-0.590938 -0.19293,-1.600165 0.135486,-1.928576 0.419919,-0.419923 1.535234,0.259411 1.735431,1.057037 0.130046,0.518134 0.28316,0.620287 0.744394,0.496616 0.319383,-0.08563 0.788098,-0.157315 1.04162,-0.159295 0.318284,-0.0025 0.46093,-0.212735 0.46093,-0.679386 0,-0.907094 0.44985,-1.694712 0.967936,-1.694712 0.577185,0 1.120668,0.776429 1.130812,1.615465 0.0062,0.492759 0.179971,0.739592 0.600988,0.852419 0.978468,0.262219 1.514497,0.187906 1.514497,-0.209956 0,-0.521471 1.26807,-1.469986 1.728846,-1.293165 0.42412,0.162747 0.50796,1.58309 0.128806,2.182395 -0.178186,0.28166 -0.02195,0.533761 0.596666,0.962808 0.836444,0.580119 0.839132,0.580235 1.403245,0.05922 0.359127,-0.331684 0.839286,-0.490663 1.316947,-0.436023 0.624534,0.07143 0.739458,0.195785 0.679069,0.734772 -0.03994,0.356831 -0.300921,0.891712 -0.579845,1.188621 -0.500878,0.533147 -0.500459,0.550402 0.03282,1.392481 0.606591,0.958052 0.597168,0.953789 1.290216,0.582889 0.676759,-0.362195 1.833961,-0.04749 1.82344,0.495861 -0.01197,0.616362 -0.552205,1.245871 -1.262788,1.4714 -0.397195,0.126075 -0.557965,0.331138 -0.459921,0.586652 0.08292,0.216056 0.150748,0.679451 0.150748,1.029762 0,0.508152 0.136637,0.636933 0.675782,0.636933 0.907103,0 1.694725,0.449848 1.694725,0.967939 0,0.584904 -0.780131,1.120783 -1.646185,1.130798 -0.398386,0.0046 -0.724322,0.112094 -0.724322,0.238842 0,0.126758 -0.07407,0.600859 -0.164628,1.053561 -0.12895,0.64482 -0.07426,0.82309 0.25273,0.82309 0.229537,0 0.718472,0.324733 1.086489,0.721631 0.523851,0.564945 0.669121,0.624143 0.669121,0.272661 0,-0.246938 -0.234323,-0.574388 -0.520737,-0.72767 -0.286408,-0.153281 -0.656985,-0.533272 -0.823507,-0.844433 -0.429571,-0.80265 0.35081,-1.345908 1.624725,-1.131057 0.90078,0.151922 0.951166,0.118514 1.239782,-0.821879 0.319275,-1.040301 0.237806,-1.420095 -0.304627,-1.420095 -0.183507,0 -0.597889,-0.281296 -0.920883,-0.6251 -0.54233,-0.577284 -0.55448,-0.657877 -0.158801,-1.053559 0.235665,-0.235648 0.838566,-0.428456 1.339787,-0.428456 0.943427,0 1.013322,-0.08397 1.260485,-1.514489 0.129934,-0.751971 0.07668,-0.857082 -0.438138,-0.864779 -0.621794,-0.0092 -1.77129,-0.823264 -1.77129,-1.254265 0,-0.367019 1.205971,-1.107478 1.803732,-1.107478 0.574043,0 0.891257,-0.85014 0.660394,-1.769938 -0.101802,-0.405564 -0.345799,-0.600568 -0.751473,-0.600568 -0.330409,0 -0.880555,-0.237052 -1.222546,-0.526778 l -0.621808,-0.52678 0.621808,-0.526777 c 0.341991,-0.289736 0.910364,-0.52678 1.263038,-0.52678 0.594556,0 0.629277,-0.07186 0.477074,-0.987715 -0.249021,-1.498403 -0.315455,-1.615444 -0.839131,-1.4785 -0.677716,0.17722 -1.917881,-0.340425 -1.917881,-0.800523 0,-0.371494 1.031346,-1.335173 1.649409,-1.541198 0.231509,-0.07716 0.229279,-0.358082 -0.0096,-1.153756 -0.311051,-1.038206 -0.331183,-1.051534 -1.562761,-1.034943 -1.5835,0.02135 -1.803249,-0.575249 -0.619295,-1.68123 l 0.816421,-0.762646 -0.453327,-0.950618 c -0.327768,-0.687335 -0.566396,-0.900809 -0.861648,-0.770787 -0.96829,0.426429 -2.044644,0.413404 -2.213556,-0.0268 -0.188134,-0.490273 0.244616,-1.474145 0.790114,-1.796315 0.507205,-0.299556 0.441605,-0.733478 -0.239539,-1.584635 -0.575927,-0.719686 -0.616929,-0.729507 -1.381489,-0.330858 -0.95163,0.496198 -1.698874,0.532634 -1.74012,0.08486 -0.06886,-0.747232 0.101905,-1.408146 0.470561,-1.821455 0.346852,-0.388857 0.342284,-0.51343 -0.04027,-1.097289 -0.557458,-0.850838 -1.158905,-1.070724 -1.689106,-0.617556 -1.152683,0.985189 -2.259153,0.660521 -1.96432,-0.5763789 0.09102,-0.381801 0.294719,-0.8574695 0.452686,-1.0570412 0.22245,-0.2810505 0.08164,-0.5344454 -0.62442,-1.1239209 C 49.109614,7.0174511 49.070733,7.0097241 48.682954,7.4953537 48.171327,8.1360969 47.162536,8.6551788 46.829246,8.4491956 46.498189,8.2445868 46.495449,6.8476238 46.823838,6.2320249 47.036036,5.8355185 46.908306,5.6818963 46.041654,5.2910761 L 45.005866,4.8239972 44.23373,5.6505685 c -0.42466,0.4546132 -0.898172,0.8265692 -1.052253,0.8265692 -0.488349,0 -0.853911,-1.0291491 -0.685118,-1.9288193 0.154087,-0.8213597 0.109999,-0.8840864 -0.822395,-1.1702466 -1.045001,-0.3207226 -1.425053,-0.2398867 -1.425053,0.3031086 0,0.1834962 -0.281297,0.5978917 -0.625109,0.9208792 -0.57728,0.5423309 -0.657868,0.5544768 -1.053558,0.1587933 -0.235652,-0.2356526 -0.428455,-0.8385481 -0.428455,-1.3397723 0,-0.9434369 -0.08398,-1.0133293 -1.514504,-1.2604928 -0.751957,-0.1299184 -0.857067,-0.076669 -0.864771,0.4381398 -0.0096,0.6360453 -0.826854,1.7712942 -1.275277,1.7712942 -0.152774,0 -0.419064,-0.264038 -0.591775,-0.5867503 -0.304277,-0.5685349 -0.319794,-0.5705797 -0.499825,-0.065847 -0.139928,0.3923155 -0.04843,0.5631869 0.370611,0.6921927 0.959032,0.2952392 1.741648,0.2389016 1.741648,-0.1253762 0,-0.1920432 0.29284,-0.6242776 0.650749,-0.9605221 0.539845,-0.5071583 0.719406,-0.554376 1.053552,-0.2770501 0.449588,0.3731228 0.528949,1.3856704 0.162313,2.0707496 -0.188822,0.3528261 -0.0532,0.57218 0.631471,1.0209668 0.862073,0.565096 0.877246,0.5657773 1.334884,0.060087 0.254596,-0.2813257 0.800121,-0.5115026 1.212248,-0.5115026 0.637513,0 0.74935,0.1055587 0.74935,0.7073452 0,0.3890418 -0.231299,0.95355 -0.513996,1.2544684 -0.509868,0.5427318 -0.509734,0.5538513 0.01732,1.3862412 0.458531,0.7241877 0.611111,0.8027517 1.114089,0.5735817 0.716098,-0.326278 2.016504,0.100663 2.016504,0.6620449 0,0.352761 -1.017492,1.328199 -1.588221,1.522586 -0.134673,0.04585 -0.172474,0.527858 -0.08398,1.071099 0.134632,0.826888 0.265247,0.98771 0.802149,0.98771 1.649391,0 2.253046,1.270891 0.874821,1.841768 -0.431989,0.178936 -0.952281,0.261314 -1.15621,0.183061 -0.252301,-0.09682 -0.422129,0.114499 -0.531509,0.661403 -0.234492,1.172444 -0.199247,1.528 0.151529,1.528 0.171747,0 0.581989,0.25341 0.91167,0.563122 1.093467,1.027261 -0.274021,2.070914 -1.707945,1.303497 -0.352823,-0.188829 -0.572176,-0.05315 -1.020963,0.63148 -0.565097,0.862056 -0.56579,0.877229 -0.06009,1.334876 0.281316,0.254598 0.51149,0.800109 0.51149,1.212248 0,0.637519 -0.105557,0.749348 -0.707343,0.749348 -0.389045,0 -0.953549,-0.231299 -1.254465,-0.513995 -0.542728,-0.509872 -0.553863,-0.509732 -1.386253,0.01731 -0.724181,0.458525 -0.802747,0.611117 -0.573569,1.114083 0.326273,0.716106 -0.100673,2.016509 -0.662056,2.016509 -0.35275,0 -1.328194,-1.017495 -1.522573,-1.588232 -0.04588,-0.134659 -0.527865,-0.172472 -1.071105,-0.08401 -0.852051,0.138747 -0.987703,0.256576 -0.987703,0.857932 0,0.383406 -0.184519,0.960523 -0.41002,1.282485 -0.371102,0.529817 -0.371102,0.585386 0,0.585386 0.225501,0 0.41002,-0.171182 0.41002,-0.380396 0,-0.678358 1.142687,-1.777056 1.646953,-1.583555 0.520475,0.199728 0.654451,1.812774 0.175167,2.108995 -0.180141,0.111323 -0.0223,0.450274 0.428937,0.9213 0.663552,0.692604 0.75602,0.717587 1.310651,0.354171 0.733418,-0.480555 1.973149,-0.236593 1.961088,0.38592 -0.01197,0.614617 -0.574285,1.275894 -1.183436,1.391549 -0.666548,0.126544 -0.936381,2.069806 -0.287413,2.069806 0.691134,0 1.795196,1.136851 1.599449,1.646956 -0.199649,0.520485 -1.812702,0.654467 -2.108917,0.175179 -0.111324,-0.18014 -0.450283,-0.02234 -0.921301,0.428934 -0.692595,0.663556 -0.717582,0.756017 -0.354164,1.310656 0.480551,0.733412 0.236594,1.973145 -0.38592,1.961084 -0.614615,-0.01196 -1.275896,-0.57429 -1.391553,-1.183444 -0.126529,-0.666539 -2.069807,-0.936376 -2.069807,-0.287407 0,0.691135 -1.136841,1.795193 -1.646952,1.59945 -0.511923,-0.196445 -0.647374,-1.671373 -0.195031,-2.123717 0.177903,-0.177911 0.02627,-0.492602 -0.460938,-0.956607 -0.628392,-0.598478 -0.789426,-0.644708 -1.197215,-0.343664 -0.435221,0.321288 -0.410106,0.369103 0.32923,0.626839 0.440225,0.15346 0.800397,0.424009 0.800397,0.601221 0,0.440903 -0.795346,1.285538 -1.210529,1.285538 -0.527427,0 -0.674013,0.436465 -0.484962,1.44416 0.142711,0.760723 0.289379,0.926344 0.820268,0.926344 1.653981,0 2.260695,1.26985 0.879959,1.84177 -0.431989,0.178934 -0.953071,0.26101 -1.15797,0.182385 -0.260557,-0.09999 -0.45142,0.167828 -0.634987,0.891022 -0.245318,0.966504 -0.218611,1.055518 0.409366,1.364057 0.840236,0.412845 1.249244,1.050211 1.033959,1.611233 -0.185022,0.482164 -1.266582,0.573711 -2.019217,0.170913 -0.398111,-0.213068 -0.581391,-0.108934 -1.015771,0.577112 -0.523627,0.827035 -0.523917,0.844814 -0.0237,1.480746 0.278473,0.354013 0.506309,0.923986 0.506309,1.266616 0,0.500368 -0.1392,0.622949 -0.707349,0.622949 -0.389045,0 -0.971471,-0.248134 -1.294304,-0.551407 L 23.4374,48.833609 22.617441,49.439834 c -0.556595,0.411509 -0.761731,0.73667 -0.638652,1.012343 0.263826,0.590938 0.192924,1.600166 -0.135483,1.928576 -0.419918,0.419922 -1.535242,-0.259411 -1.735433,-1.057037 -0.130045,-0.518135 -0.283161,-0.620286 -0.7444,-0.496617 -0.319383,0.08563 -0.788106,0.157316 -1.041619,0.159296 -0.318279,0.0025 -0.460924,0.212735 -0.460924,0.679383 0,0.907102 -0.44985,1.694718 -0.967949,1.694718 -0.57718,0 -1.120663,-0.776434 -1.130799,-1.615468 -0.0062,-0.492759 -0.179979,-0.739588 -0.601008,-0.852419 -0.978457,-0.262218 -1.514484,-0.187904 -1.514484,0.209956 0,0.521472 -1.268077,1.469985 -1.728839,1.293168 -0.424125,-0.162751 -0.507958,-1.583093 -0.128808,-2.182397 0.178186,-0.281663 0.02195,-0.533762 -0.596664,-0.96281 -0.836458,-0.580124 -0.839145,-0.580237 -1.4032574,-0.05922 -0.3591203,0.331685 -0.839288,0.490665 -1.3169407,0.436023 -0.653826,-0.07479 -0.7413429,-0.183822 -0.6717622,-0.836973 0.055899,-0.524151 -0.023702,-0.716452 -0.2633864,-0.636645 -0.563932,0.187767 -0.5181794,0.814117 0.1170614,1.602555 0.5797666,0.71959 0.6210797,0.729455 1.385518,0.330862 0.951636,-0.496199 1.6988653,-0.532639 1.7401263,-0.08486 0.06886,0.747235 -0.101904,1.408147 -0.470555,1.821459 -0.3468559,0.388856 -0.3422831,0.513429 0.04027,1.097285 0.557493,0.850834 1.158927,1.070728 1.689148,0.617555 1.152667,-0.985181 2.259128,-0.660522 1.964308,0.576383 -0.09102,0.381796 -0.294726,0.857467 -0.452702,1.057039 -0.222469,0.281049 -0.08167,0.534443 0.624416,1.123919 0.884592,0.738503 0.923469,0.746231 1.311255,0.2606 0.511625,-0.640748 1.520418,-1.159827 1.85371,-0.953848 0.331061,0.204611 0.333795,1.601579 0.0034,2.217174 -0.2122,0.396503 -0.08447,0.550131 0.782185,0.940948 l 1.035792,0.467076 0.772138,-0.826567 c 0.424667,-0.454619 0.898192,-0.826574 1.05228,-0.826574 0.488342,0 0.853896,1.029148 0.685124,1.928819 -0.154094,0.821357 -0.11,0.884085 0.822382,1.170247 1.045,0.32072 1.425061,0.239882 1.425061,-0.303107 0,-0.183495 0.281303,-0.597895 0.625099,-0.920883 0.577288,-0.542329 0.657882,-0.554476 1.053561,-0.158791 0.235651,0.235651 0.42846,0.838548 0.42846,1.33977 0,0.943435 0.08397,1.013327 1.514489,1.260496 0.751973,0.129918 0.857082,0.07668 0.864779,-0.438145 0.0097,-0.62179 0.823264,-1.771291 1.254264,-1.771291 0.37028,0 1.107476,1.20825 1.107476,1.815146 0,0.552088 0.521708,0.793793 1.570971,0.727851 0.512891,-0.0322 0.686794,-0.226536 0.828704,-0.925944 z M 8.6241638,47.457655 C 8.8230866,47.217966 8.8392315,47.028321 8.6696258,46.9235 8.524987,46.83412 8.2780142,47.00135 8.120794,47.295137 7.7956181,47.902716 8.157836,48.019633 8.6241642,47.457655 z M 57.825554,46.293284 c -0.466318,-0.04805 -1.005489,-0.21822 -1.198197,-0.37815 -0.26107,-0.216659 -0.41043,-0.19439 -0.58597,0.08736 -0.185547,0.297839 -0.01442,0.409739 0.805355,0.526899 0.572526,0.08183 1.123948,0.231754 1.225389,0.333196 0.101445,0.101445 0.278224,0.0345 0.392838,-0.14875 0.148873,-0.238019 -0.03382,-0.358155 -0.639415,-0.420564 z m -51.6835954,0.05075 c 0.3499673,-0.134304 0.3676549,-0.213403 0.087366,-0.391053 -0.5590413,-0.354374 -1.007127,-0.266896 -0.8416576,0.164316 0.1737489,0.452766 0.1689662,0.451331 0.7542616,0.226737 z m 1.7895558,-0.649115 c -0.2083258,-0.208326 -0.4284653,-0.210596 -0.7769924,-0.008 -0.4263243,0.247808 -0.3904732,0.28366 0.2906855,0.290683 0.5666316,0.0058 0.6982977,-0.07069 0.4863069,-0.282671 z M 6.4504791,43.75886 C 6.9063234,43.644447 7.0629232,43.467269 6.9555443,43.187432 6.8699376,42.964353 6.7999076,42.49522 6.7999076,42.144904 c 0,-0.508153 -0.1366383,-0.636934 -0.6757969,-0.636934 -0.9071032,0 -1.6947109,-0.449847 -1.6947109,-0.967939 0,-0.584902 0.7801117,-1.120782 1.6461702,-1.130799 0.398387,-0.0046 0.7243376,-0.112093 0.7243376,-0.238842 0,-0.126757 0.070901,-0.585083 0.1576029,-1.018503 0.1341759,-0.670866 0.065739,-0.811371 -0.4609356,-0.945006 -0.7372897,-0.187104 -1.3304458,-1.047774 -1.1128653,-1.614765 0.1863362,-0.485584 1.6918099,-0.551301 2.149297,-0.09383 0.1714179,0.171421 0.3436705,0.260316 0.3827952,0.19754 0.039068,-0.06277 0.3313988,-0.48641 0.6495095,-0.941416 0.5607183,-0.80203 0.5635482,-0.840702 0.092653,-1.266861 -0.5867313,-0.530965 -0.8466493,-1.6667 -0.4399524,-1.922256 0.4506401,-0.283158 1.2896712,-0.0725 1.8776261,0.471413 0.517561,0.478796 0.550292,0.477674 1.379376,-0.04723 0.720545,-0.456217 0.807179,-0.616261 0.571717,-1.056216 -0.392642,-0.733666 -0.05207,-2.067968 0.527838,-2.067968 0.507707,0 1.156299,0.63998 1.431709,1.412678 0.1269,0.356061 0.336744,0.447438 0.764357,0.332834 0.324178,-0.0869 0.805321,-0.159602 1.069206,-0.161581 0.342289,-0.0025 0.459326,-0.173409 0.408429,-0.596219 -0.09752,-0.810021 0.476386,-1.777879 1.054199,-1.777879 0.565096,0 1.106527,1.052021 0.916135,1.780085 -0.107907,0.412628 0.03441,0.550032 0.709116,0.684987 1.275777,0.255155 1.568433,0.208527 1.568433,-0.249891 0,-0.669158 1.0961,-1.420787 1.644179,-1.127461 0.532503,0.284984 0.624573,1.542563 0.147856,2.019287 -0.244521,0.244516 -0.200271,0.404785 0.197537,0.715598 1.117754,0.873307 1.349848,0.921715 1.83724,0.383149 0.257986,-0.285066 0.806271,-0.518301 1.218412,-0.518301 0.612311,0 0.749343,0.113917 0.749343,0.622949 0,0.342628 -0.244748,0.93411 -0.543899,1.31441 -0.299145,0.380298 -0.462418,0.82326 -0.362859,0.984367 0.108988,0.176341 0.335662,-0.02633 0.569561,-0.509282 0.221817,-0.457991 0.631784,-0.836868 0.955483,-0.882999 0.447031,-0.06371 0.584259,-0.289747 0.648722,-1.068515 0.06122,-0.739938 -0.01763,-0.987711 -0.314553,-0.987711 -0.691148,0 -1.795195,-1.136849 -1.599449,-1.646954 0.199717,-0.520483 1.812772,-0.65446 2.108985,-0.175176 0.111338,0.180142 0.450281,0.02234 0.921301,-0.428929 0.692601,-0.663556 0.717589,-0.756022 0.354165,-1.310657 -0.480544,-0.733416 -0.236588,-1.973147 0.385925,-1.961091 0.612985,0.01182 1.275506,0.573546 1.392388,1.180421 0.05476,0.284457 0.326907,0.56096 0.604727,0.614466 0.472785,0.09105 0.476839,0.06898 0.06332,-0.344628 -0.499772,-0.499771 -0.832354,-1.568036 -0.603474,-1.938374 0.08369,-0.135457 -0.216246,-0.319982 -0.666602,-0.410056 -1.187887,-0.237577 -1.543136,-0.203395 -1.543136,0.148504 0,0.171739 -0.253403,0.581997 -0.563123,0.911677 -1.027253,1.093462 -2.070911,-0.27402 -1.303496,-1.707944 0.188821,-0.352827 0.0532,-0.572181 -0.631472,-1.020968 -0.862053,-0.565097 -0.87724,-0.565775 -1.334877,-0.06009 -0.254597,0.281326 -0.800108,0.511502 -1.212249,0.511502 -0.63752,0 -0.749343,-0.105558 -0.749343,-0.707343 0,-0.389039 0.231293,-0.953551 0.514002,-1.254467 0.509909,-0.542786 0.509728,-0.553854 -0.0237,-1.396354 -0.439156,-0.693587 -0.625958,-0.802002 -1.019225,-0.591531 -0.7234,0.387156 -2.104978,0.03161 -2.104978,-0.541731 0,-0.426234 0.957867,-1.400138 1.588227,-1.614835 0.134673,-0.04588 0.172475,-0.52786 0.08398,-1.071102 -0.134643,-0.826888 -0.265251,-0.987709 -0.802155,-0.987709 -1.649382,0 -2.253033,-1.270891 -0.874821,-1.841768 0.431982,-0.178937 0.952282,-0.261313 1.156205,-0.18306 0.252307,0.09682 0.422134,-0.114499 0.531522,-0.661402 0.239261,-1.19633 0.198363,-1.528001 -0.188439,-1.528001 -0.192047,0 -0.624285,-0.292843 -0.960526,-0.650754 -0.507161,-0.539847 -0.554375,-0.7194029 -0.277052,-1.0535589 0.373117,-0.4495865 1.385673,-0.5289508 2.070757,-0.162309 0.352828,0.188827 0.572174,0.05315 1.020961,-0.6314747 0.565098,-0.8620649 0.565784,-0.8772349 0.06009,-1.3348791 C 23.360291,7.1306256 23.13012,6.5851126 23.13012,6.1729724 c 0,-0.6375167 0.105557,-0.7493472 0.707346,-0.7493472 0.389045,0 0.953549,0.2312975 1.254469,0.5139944 0.542731,0.5098705 0.55385,0.5097328 1.386239,-0.017302 0.72419,-0.4585221 0.802743,-0.6111172 0.573577,-1.1140854 -0.364177,-0.7992956 0.127327,-2.08696 0.750781,-1.9668942 0.251142,0.048364 0.695275,0.4672661 0.986928,0.9308825 0.291674,0.4636184 0.687064,0.8475089 0.878656,0.8530888 0.236235,0.00689 0.172667,-0.2132167 -0.197531,-0.6838494 C 29.170342,3.5577657 28.92469,2.9547217 28.92469,2.5993623 c 0,-0.6135844 -0.05638,-0.6367804 -1.119412,-0.4608761 -1.410148,0.2333362 -1.491919,0.2855397 -1.34252,0.8568644 0.173716,0.6642812 -0.349933,1.9014964 -0.804808,1.9014964 -0.371494,0 -1.335179,-1.0313374 -1.541204,-1.6493989 -0.07714,-0.2315049 -0.358075,-0.2292891 -1.153752,0.00914 -1.038198,0.311054 -1.051534,0.3311826 -1.034937,1.562756 0.02135,1.5835037 -0.575247,1.8032599 -1.681235,0.6193021 l -0.762645,-0.816403 -0.950621,0.4533157 c -0.68734,0.3277685 -0.900819,0.5664065 -0.770795,0.8616515 0.426424,0.9682982 0.413414,2.0446459 -0.02681,2.2135629 C 17.24569,8.3389086 16.261819,7.9061462 15.939648,7.3606537 15.640086,6.8534554 15.206165,6.9190466 14.355008,7.6001905 13.635326,8.176126 13.625499,8.2171332 14.02415,8.9816776 c 0.496195,0.9516295 0.532641,1.6988744 0.08486,1.7401254 -0.747231,0.06883 -1.40815,-0.101905 -1.821455,-0.47056 -0.388857,-0.3468509 -0.513425,-0.3422749 -1.097284,0.04028 -0.850831,0.557487 -1.070722,1.158927 -0.617559,1.68914 0.985185,1.152675 0.660523,2.259142 -0.5763766,1.964313 -0.3818101,-0.09106 -0.8574818,-0.294771 -1.0570545,-0.452745 -0.2810464,-0.22247 -0.5344442,-0.0817 -1.1239226,0.624405 -0.7384939,0.8846 -0.7462189,0.923479 -0.2605844,1.311253 0.6407254,0.511634 1.159821,1.520424 0.9538399,1.853712 -0.2046166,0.331059 -1.6015769,0.333794 -2.2171748,0.0046 -0.3965071,-0.212203 -0.5501314,-0.0845 -0.9409487,0.782184 l -0.4670787,1.035793 0.826577,0.77213 c 0.4546064,0.424673 0.8265643,0.898203 0.8265643,1.05228 0,0.488344 -1.0291519,0.853901 -1.9288191,0.685124 -0.8213649,-0.154089 -0.8840835,-0.110014 -1.1702478,0.822386 -0.3207304,1.045004 -0.2398887,1.425058 0.3031176,1.425058 0.1834872,0 0.5978828,0.281295 0.9208703,0.6251 0.5423307,0.577289 0.5544816,0.657878 0.1587893,1.053557 -0.2356506,0.235656 -0.8385461,0.428459 -1.3397722,0.428459 -0.9434331,0 -1.0133253,0.08398 -1.2604868,1.514493 -0.1314124,0.760573 -0.080328,0.856017 0.4580738,0.856017 0.3332864,0 0.8917879,0.304234 1.2411092,0.676078 l 0.6351504,0.67608 -0.6550734,0.503309 c -0.3602927,0.276828 -0.9089151,0.505954 -1.2191513,0.509174 -0.3844999,0.0039 -0.6184802,0.222623 -0.7349587,0.686735 -0.2535535,1.010215 0.052398,1.689631 0.7608217,1.689631 0.3363565,0 0.8913554,0.237052 1.2333429,0.52678 l 0.6218139,0.526779 -0.6218139,0.526777 c -0.3419875,0.28973 -0.9153946,0.526781 -1.274246,0.526781 -0.6210451,0 -0.643535,0.05388 -0.4672135,1.119405 0.2333345,1.410139 0.2855311,1.491926 0.8568579,1.342521 0.6642929,-0.173715 1.9015023,0.349941 1.9015023,0.804806 0,0.371493 -1.0313343,1.335179 -1.6494038,1.541198 -0.231502,0.07716 -0.2292851,0.358088 0.00865,1.153757 0.3110519,1.038207 0.3311766,1.051538 1.5627469,1.034946 1.5814865,-0.02132 1.8033033,0.575208 0.6236809,1.677146 -0.5412945,0.505641 -0.755804,0.905148 -0.6433464,1.198204 0.1364527,0.355587 0.2415511,0.28922 0.549754,-0.347143 0.2158367,-0.445664 0.6675046,-0.858672 1.0417591,-0.952603 z M 18.977511,42.846523 c 0.761037,-0.679985 0.860174,-0.925323 0.860174,-2.128722 0,-1.203397 -0.09915,-1.448734 -0.860174,-2.128717 -1.259589,-1.125452 -2.701622,-1.0786 -3.907183,0.126955 -0.734142,0.734148 -0.895526,1.094874 -0.895526,2.001761 0,0.906888 0.161384,1.267616 0.895526,2.001764 1.205561,1.205553 2.647594,1.252412 3.907183,0.126957 z m 30.122755,-0.126959 c 0.734144,-0.734147 0.895527,-1.094875 0.895527,-2.001763 0,-0.906886 -0.161383,-1.267613 -0.895527,-2.00176 -1.205566,-1.205557 -2.647587,-1.252409 -3.907184,-0.126956 -0.761038,0.679984 -0.860179,0.92532 -0.860179,2.128718 0,1.2034 0.09915,1.448737 0.860179,2.128721 1.259597,1.125455 2.701618,1.078597 3.907184,-0.126958 z M 26.694884,35.386597 c -0.497884,-0.27863 -0.80722,-0.112307 -0.553794,0.29775 0.0916,0.148175 0.35347,0.197663 0.581989,0.109972 0.371089,-0.142403 0.368077,-0.185963 -0.02822,-0.407727 z m 7.392172,-1.358918 c 0.734156,-0.734144 0.895532,-1.094869 0.895532,-2.001756 0,-0.906888 -0.161376,-1.267616 -0.895532,-2.001763 -0.734143,-0.734149 -1.094875,-0.895524 -2.001754,-0.895524 -0.906895,0 -1.267627,0.161375 -2.00177,0.895524 -0.734142,0.734147 -0.895526,1.094875 -0.895526,2.001763 0,0.906887 0.161384,1.267612 0.895526,2.001756 0.734143,0.734147 1.094875,0.895527 2.00177,0.895527 0.906879,0 1.267611,-0.16138 2.001754,-0.895527 z m 0,-17.383707 c 0.734156,-0.734148 0.895532,-1.094875 0.895532,-2.001763 0,-1.584118 -1.313169,-2.897282 -2.897286,-2.897282 -0.906895,0 -1.267627,0.161377 -2.00177,0.895524 -0.734142,0.734144 -0.895526,1.094871 -0.895526,2.001758 0,0.906888 0.161384,1.267615 0.895526,2.001763 0.734143,0.734143 1.094875,0.895523 2.00177,0.895523 0.906879,0 1.267611,-0.16138 2.001754,-0.895523 z M 31.295121,3.6384557 c 0,-0.4023596 0.1926,-1.0065285 0.427982,-1.3425975 0.40203,-0.5739625 0.398669,-0.6053849 -0.05537,-0.517946 -0.300741,0.057918 -0.549262,0.4152785 -0.657773,0.9458874 -0.09592,0.4690428 -0.322576,1.0313232 -0.503659,1.2495114 -0.275664,0.3321578 -0.238276,0.396707 0.229799,0.396707 0.435593,0 0.559021,-0.1615243 0.559021,-0.7315623 z m 1.998705,-1.5717618 c -0.283271,-0.2832731 -0.433654,0.1134595 -0.234804,0.6194402 0.186532,0.4746461 0.200629,0.475468 0.292873,0.017086 0.05327,-0.2648525 0.02727,-0.5512876 -0.05813,-0.6365253 z"
       id="path3011"
       inkscape:connector-curvature="0" />
  </g>
</svg>
